<svg width="109" height="26" viewBox="0 0 109 26" xmlns="http://www.w3.org/2000/svg" role="img" aria-labelledby="logo-title" aria-describedby="logo-desc">
  <title id="logo-title">لوگوی پیشرفته و پویا</title>
  <desc id="logo-desc">لوگوی مقیاس‌پذیر با انیمیشن‌های تعاملی، پشتیبانی از تم‌های تیره/روشن، و دسترسی‌پذیری بهبودیافته برای استفاده در وب</desc>
  
  <style>
    :root {
      --main-fill: #2C2C31;
      --circle-fill: #0A33FF;
      --gradient-main-start: #FFD60A;
      --gradient-main-end: #F0BA09;
      --gradient-alt-start: #FFEA61;
      --gradient-alt-end: #FFD700;
      --gradient-dark-start: #D4A017;
      --gradient-dark-end: #B8860B;
    }
    .main-fill { fill: var(--main-fill); }
    .circle-fill { fill: var(--circle-fill); }
    .gradient-group path:first-child:hover {
      transform: scale(1.05);
      transition: transform 0.3s ease;
    }
    #gradient-main stop:first-child { 
      stop-color: var(--gradient-main-start);
      animation: gradientShift 3s infinite alternate;
    }
    #gradient-main stop:last-child { 
      stop-color: var(--gradient-main-end);
      animation: gradientShiftAlt 3s infinite alternate;
    }
    @keyframes gradientShift {
      0% { stop-color: var(--gradient-main-start); }
      100% { stop-color: var(--gradient-alt-start); }
    }
    @keyframes gradientShiftAlt {
      0% { stop-color: var(--gradient-main-end); }
      100% { stop-color: var(--gradient-alt-end); }
    }
    @media (prefers-color-scheme: dark) {
      :root {
        --main-fill: #E0E0E0;
        --circle-fill: #1E90FF;
        --gradient-main-start: var(--gradient-dark-start);
        --gradient-main-end: var(--gradient-dark-end);
      }
    }
  </style>

  <!-- گروه اصلی عناصر لوگو -->
  <g id="logo-main" class="main-fill">
    <path d="M21.3 1a1.7 1.7 0 011.7 1.7v8.6a1.7 1.7 0 001.7 1.7h5.2a1.7 1.7 0 001.7-1.7v-1.7a1.7 1.7 0 011.7-1.7 1.7 1.7 0 011.7 1.7v1.7a5.2 5.2 0 01-5.2 5.2h-5.2a5.2 5.2 0 01-5.2-5.2v-8.6A1.7 1.7 0 0121.3 1z"/>
    <path d="M24.8 19.9a1.7 1.7 0 011.7-1.7h5.2a1.7 1.7 0 011.7 1.7v1.7a1.7 1.7 0 01-1.7 1.7h-5.2a1.7 1.7 0 01-1.7-1.7z"/>
    <path d="M16.2 1a1.7 1.7 0 011.7 1.7v12a6.9 6.9 0 01-6.9 6.9 6.9 6.9 0 01-6.9-6.9v-3.4a1.7 1.7 0 011.7-1.7 1.7 1.7 0 011.7 1.7v3.4a3.4 3.4 0 003.4 3.4 3.4 3.4 0 003.4-3.4v-12A1.7 1.7 0 0116.2 1z"/>
    <path d="M70.6 17.6c.3-.3.5-1 .5-1.8v-6.2a1.7 1.7 0 011.7-1.7 1.7 1.7 0 011.7 1.7v6.2c0 1.5-.4 3-1.3 4.1-.9 1.1-2.3 1.7-3.8 1.7a1.7 1.7 0 01-1.7-1.7 1.7 1.7 0 011.7-1.7c.5 0 .9-.2 1.2-.5z"/>
    <path d="M77.5 17.6c.3-.3.5-1 .5-1.8v-6.2a1.7 1.7 0 011.7-1.7 1.7 1.7 0 011.7 1.7v6.2c0 1.5-.4 3-1.3 4.1-.9 1.1-2.3 1.7-3.8 1.7a1.7 1.7 0 01-1.7-1.7 1.7 1.7 0 011.7-1.7c.5 0 .9-.2 1.2-.5z"/>
    <path d="M79.8 6.1a1.7 1.7 0 011.7-1.7 1.7 1.7 0 011.7 1.7 1.7 1.7 0 01-1.7 1.7 1.7 1.7 0 01-1.7-1.7z"/>
    <path d="M57.4 19.9a1.7 1.7 0 011.7-1.7h5.2a1.7 1.7 0 011.7 1.7 1.7 1.7 0 01-1.7 1.7h-5.2a1.7 1.7 0 01-1.7-1.7z"/>
    <path d="M48.8 7.8a1.7 1.7 0 011.7 1.7v1.9c0 .8.7 1.6 1.7 1.6h10.3c1.1 0 1.7-.7 1.7-1.6v-1.9a1.7 1.7 0 011.7-1.7 1.7 1.7 0 011.7 1.7v1.9a5.2 5.2 0 01-5.2 5.2h-10.3a5.2 5.2 0 01-5.2-5.2v-1.9a1.7 1.7 0 011.7-1.7z"/>
    <path d="M43.7 6.1a1.7 1.7 0 011.7-1.7 1.7 1.7 0 011.7 1.7 1.7 1.7 0 01-1.7 1.7 1.7 1.7 0 01-1.7-1.7z"/>
    <path d="M38.5 7.8a1.7 1.7 0 011.7 1.7v5.2a3.4 3.4 0 003.4 3.4 3.4 3.4 0 003.4-3.4v-5.2a1.7 1.7 0 011.7-1.7 1.7 1.7 0 011.7 1.7v5.2a6.9 6.9 0 01-6.9 6.9 6.9 6.9 0 01-6.9-6.9v-5.2a1.7 1.7 0 011.7-1.7z"/>
  </g>

  <!-- گروه عناصر گرادیانی -->
  <g id="logo-gradient" class="gradient-group">
    <path d="M96.1 5.2c.2-.5.6-.8 1.1-.8h7.8c.9 0 1.5.9 1.1 1.7l-6 14.8c-.2.5-.6.8-1.1.8h-7.8c-.9 0-1.5-.9-1.1-1.7z" fill="url(#gradient-main)"/>
    <path d="M92.8 14.7a5.2 5.2 0 005.2-5.2 5.2 5.2 0 00-5.2-5.2 5.2 5.2 0 00-5.2 5.2 5.2 5.2 0 005.2 5.2z" class="circle-fill"/>
    <path d="M98 9.6a5.2 5.2 0 01-5.2 5.2c-.2 0-.4 0-.5 0l3.7-9.2a5.2 5.2 0 012 4z" fill="url(#gradient-secondary)"/>
  </g>

  <!-- تعریف گرادیان‌ها -->
  <defs>
    <linearGradient id="gradient-main" x1="101.4" y1="4.4" x2="95.3" y2="21.6" gradientUnits="userSpaceOnUse">
      <stop/>
      <stop offset="1"/>
    </linearGradient>
    <linearGradient id="gradient-secondary" x1="96" y1="5.5" x2="92.3" y2="14.7" gradientUnits="userSpaceOnUse">
      <stop stop-color="#051A80"/>
      <stop offset="1" stop-color="#0A33FF"/>
    </linearGradient>
  </defs>
</svg>
